<svg xmlns="http://www.w3.org/2000/svg" version="1.1" width="1014" height="583" preserveAspectRatio="none" id="SVG" style="stroke-width: 2px; font-size: 13px; font-family: sans-serif; shape-rendering: crispedges;" viewBox="-20 -57 1080.737548828125 667.2000122070312"><rect id="backgroundRect" x="-20" y="-57" width="1080.737548828125" height="667.2000122070312" fill="white"></rect><path d="M 1014 583 H 936.7722772277228 V 583" fill="none" stroke-width="2" class="treeEdge edgetrait_VHJ1ZQ==" vector-effect="non-scaling-stroke" id="node#13" stroke="#0400e5"></path><path d="M 1014 466.40000000000003 H 936.7722772277228 V 466.40000000000003" fill="none" stroke-width="2" class="treeEdge edgetrait_VHJ1ZQ==" vector-effect="non-scaling-stroke" id="node#16" stroke="#0400e5"></path><path d="M 396.1782178217822 0 H 318.950495049505 V 0" fill="none" stroke-width="2" class="treeEdge edgetrait_RmFsc2U=" vector-effect="non-scaling-stroke" id="node#27" stroke="#e50000"></path><path d="M 936.7722772277228 583 H 859.5445544554456 V 583" fill="none" stroke-width="2" class="treeEdge edgetrait_RmFsc2U=" vector-effect="non-scaling-stroke" id="node#12" stroke="#e50000"></path><path d="M 859.5445544554456 583 H 782.3168316831684 V 524.7" fill="none" stroke-width="2" class="treeEdge edgetrait_RmFsc2U=" vector-effect="non-scaling-stroke" id="node#11" stroke="#e50000"></path><path d="M 936.7722772277228 466.40000000000003 H 859.5445544554456 V 466.40000000000003" fill="none" stroke-width="2" class="treeEdge edgetrait_RmFsc2U=" vector-effect="non-scaling-stroke" id="node#15" stroke="#e50000"></path><path d="M 859.5445544554456 466.40000000000003 H 782.3168316831684 V 524.7" fill="none" stroke-width="2" class="treeEdge edgetrait_RmFsc2U=" vector-effect="non-scaling-stroke" id="node#14" stroke="#e50000"></path><path d="M 782.3168316831684 524.7 H 705.0891089108911 V 437.25" fill="none" stroke-width="2" class="treeEdge edgetrait_RmFsc2U=" vector-effect="non-scaling-stroke" id="node#10" stroke="#e50000"></path><path d="M 705.0891089108911 437.25 H 627.861386138614 V 437.25" fill="none" stroke-width="2" class="treeEdge edgetrait_VHJ1ZQ==" vector-effect="non-scaling-stroke" id="node#9" stroke="#0400e5"></path><path d="M 627.861386138614 437.25 H 550.6336633663367 V 437.25" fill="none" stroke-width="2" class="treeEdge edgetrait_RmFsc2U=" vector-effect="non-scaling-stroke" id="node#8" stroke="#e50000"></path><path d="M 550.6336633663367 437.25 H 473.4059405940594 V 437.25" fill="none" stroke-width="2" class="treeEdge edgetrait_RmFsc2U=" vector-effect="non-scaling-stroke" id="node#7" stroke="#e50000"></path><path d="M 473.4059405940594 437.25 H 396.1782178217822 V 306.075" fill="none" stroke-width="2" class="treeEdge edgetrait_RmFsc2U=" vector-effect="non-scaling-stroke" id="node#6" stroke="#e50000"></path><path d="M 782.3168316831684 116.59999999999998 H 705.0891089108911 V 116.59999999999998" fill="none" stroke-width="2" class="treeEdge edgetrait_RmFsc2U=" vector-effect="non-scaling-stroke" id="node#22" stroke="#e50000"></path><path d="M 705.0891089108911 116.59999999999998 H 627.861386138614 V 116.59999999999998" fill="none" stroke-width="2" class="treeEdge edgetrait_RmFsc2U=" vector-effect="non-scaling-stroke" id="node#21" stroke="#e50000"></path><path d="M 627.861386138614 116.59999999999998 H 550.6336633663367 V 116.59999999999998" fill="none" stroke-width="2" class="treeEdge edgetrait_RmFsc2U=" vector-effect="non-scaling-stroke" id="node#20" stroke="#e50000"></path><path d="M 550.6336633663367 116.59999999999998 H 473.4059405940594 V 174.90000000000003" fill="none" stroke-width="2" class="treeEdge edgetrait_RmFsc2U=" vector-effect="non-scaling-stroke" id="node#19" stroke="#e50000"></path><path d="M 473.4059405940594 174.90000000000003 H 396.1782178217822 V 306.075" fill="none" stroke-width="2" class="treeEdge edgetrait_RmFsc2U=" vector-effect="non-scaling-stroke" id="node#18" stroke="#e50000"></path><path d="M 396.1782178217822 306.075 H 318.950495049505 V 306.075" fill="none" stroke-width="2" class="treeEdge edgetrait_RmFsc2U=" vector-effect="non-scaling-stroke" id="node#5" stroke="#e50000"></path><path d="M 318.950495049505 306.075 H 241.7227722772278 V 306.075" fill="none" stroke-width="2" class="treeEdge edgetrait_RmFsc2U=" vector-effect="non-scaling-stroke" id="node#4" stroke="#e50000"></path><path d="M 241.7227722772278 306.075 H 164.49504950495057 V 153.03749999999997" fill="none" stroke-width="2" class="treeEdge edgetrait_RmFsc2U=" vector-effect="non-scaling-stroke" id="node#3" stroke="#e50000"></path><path d="M 318.950495049505 0 H 241.7227722772278 V 0" fill="none" stroke-width="2" class="treeEdge edgetrait_RmFsc2U=" vector-effect="non-scaling-stroke" id="node#26" stroke="#e50000"></path><path d="M 241.7227722772278 0 H 164.49504950495057 V 153.03749999999997" fill="none" stroke-width="2" class="treeEdge edgetrait_RmFsc2U=" vector-effect="non-scaling-stroke" id="node#25" stroke="#e50000"></path><path d="M 164.49504950495057 153.03749999999997 H 87.26732673267337 V 153.03749999999997" fill="none" stroke-width="2" class="treeEdge edgetrait_RmFsc2U=" vector-effect="non-scaling-stroke" id="node#2" stroke="#e50000"></path><path d="M 87.26732673267337 153.03749999999997 H 10.039603960396049 V 153.03749999999997" fill="none" stroke-width="2" class="treeEdge edgetrait_RmFsc2U=" vector-effect="non-scaling-stroke" id="node#1" stroke="#e50000"></path><path d="M 10.039603960396049 153.03749999999997 H 0 V 153.03749999999997" fill="none" stroke-width="2" class="treeEdge edgetrait_RmFsc2U=" vector-effect="non-scaling-stroke" id="node#0" stroke="#e50000"></path><path d="M 705.0891089108911 437.25 L 859.5445544554456 116.59999999999998 H 782.3168316831684 V 116.59999999999998" fill="none" stroke-width="2" class="treeEdge edgetrait_VHJ1ZQ==" vector-effect="non-scaling-stroke" stroke-dasharray="6, 2" id="node#23" stroke="#0400e5"></path><ellipse cx="705.0891089108911" cy="437.25" rx="2.9118637998480152" ry="3.126628357050059" shape-rendering="auto" class="nodeMark nodetrait_VHJ1ZQ==" fill="#0400e5"></ellipse><path d="M 1014 583 L 550.6336633663367 233.20000000000002 H 473.4059405940594 V 174.90000000000003" fill="none" stroke-width="2" class="treeEdge edgetrait_VHJ1ZQ==" vector-effect="non-scaling-stroke" stroke-dasharray="6, 2" id="node#24" stroke="#0400e5"></path><ellipse cx="1014" cy="583" rx="2.9118637998480152" ry="3.126628357050059" shape-rendering="auto" class="nodeMark nodetrait_VHJ1ZQ==" fill="#0400e5"></ellipse><path d="M 1014 466.40000000000003 L 782.3168316831684 349.8 H 705.0891089108911 V 437.25" fill="none" stroke-width="2" class="treeEdge edgetrait_VHJ1ZQ==" vector-effect="non-scaling-stroke" stroke-dasharray="6, 2" id="node#17" stroke="#0400e5"></path><ellipse cx="1014" cy="466.40000000000003" rx="2.9118637998480152" ry="3.126628357050059" shape-rendering="auto" class="nodeMark nodetrait_VHJ1ZQ==" fill="#0400e5"></ellipse><ellipse cx="396.1782178217822" cy="0" rx="2.9118637998480152" ry="3.126628357050059" shape-rendering="auto" class="nodeMark nodetrait_RmFsc2U=" fill="#e50000"></ellipse><ellipse cx="936.7722772277228" cy="583" rx="2.9118637998480152" ry="3.126628357050059" shape-rendering="auto" class="nodeMark nodetrait_VHJ1ZQ==" fill="#0400e5"></ellipse><ellipse cx="859.5445544554456" cy="583" rx="2.9118637998480152" ry="3.126628357050059" shape-rendering="auto" class="nodeMark nodetrait_VHJ1ZQ==" fill="#0400e5"></ellipse><ellipse cx="936.7722772277228" cy="466.40000000000003" rx="2.9118637998480152" ry="3.126628357050059" shape-rendering="auto" class="nodeMark nodetrait_VHJ1ZQ==" fill="#0400e5"></ellipse><ellipse cx="859.5445544554456" cy="466.40000000000003" rx="2.9118637998480152" ry="3.126628357050059" shape-rendering="auto" class="nodeMark nodetrait_VHJ1ZQ==" fill="#0400e5"></ellipse><ellipse cx="782.3168316831684" cy="524.7" rx="2.9118637998480152" ry="3.126628357050059" shape-rendering="auto" class="nodeMark nodetrait_VHJ1ZQ==" fill="#0400e5"></ellipse><ellipse cx="627.861386138614" cy="437.25" rx="2.9118637998480152" ry="3.126628357050059" shape-rendering="auto" class="nodeMark nodetrait_RmFsc2U=" fill="#e50000"></ellipse><ellipse cx="550.6336633663367" cy="437.25" rx="2.9118637998480152" ry="3.126628357050059" shape-rendering="auto" class="nodeMark nodetrait_RmFsc2U=" fill="#e50000"></ellipse><ellipse cx="473.4059405940594" cy="437.25" rx="2.9118637998480152" ry="3.126628357050059" shape-rendering="auto" class="nodeMark nodetrait_RmFsc2U=" fill="#e50000"></ellipse><ellipse cx="782.3168316831684" cy="116.59999999999998" rx="2.9118637998480152" ry="3.126628357050059" shape-rendering="auto" class="nodeMark nodetrait_RmFsc2U=" fill="#e50000"></ellipse><ellipse cx="705.0891089108911" cy="116.59999999999998" rx="2.9118637998480152" ry="3.126628357050059" shape-rendering="auto" class="nodeMark nodetrait_RmFsc2U=" fill="#e50000"></ellipse><ellipse cx="627.861386138614" cy="116.59999999999998" rx="2.9118637998480152" ry="3.126628357050059" shape-rendering="auto" class="nodeMark nodetrait_RmFsc2U=" fill="#e50000"></ellipse><ellipse cx="550.6336633663367" cy="116.59999999999998" rx="2.9118637998480152" ry="3.126628357050059" shape-rendering="auto" class="nodeMark nodetrait_RmFsc2U=" fill="#e50000"></ellipse><ellipse cx="473.4059405940594" cy="174.90000000000003" rx="2.9118637998480152" ry="3.126628357050059" shape-rendering="auto" class="nodeMark nodetrait_RmFsc2U=" fill="#e50000"></ellipse><ellipse cx="396.1782178217822" cy="306.075" rx="2.9118637998480152" ry="3.126628357050059" shape-rendering="auto" class="nodeMark nodetrait_RmFsc2U=" fill="#e50000"></ellipse><ellipse cx="318.950495049505" cy="306.075" rx="2.9118637998480152" ry="3.126628357050059" shape-rendering="auto" class="nodeMark nodetrait_RmFsc2U=" fill="#e50000"></ellipse><ellipse cx="241.7227722772278" cy="306.075" rx="2.9118637998480152" ry="3.126628357050059" shape-rendering="auto" class="nodeMark nodetrait_RmFsc2U=" fill="#e50000"></ellipse><ellipse cx="318.950495049505" cy="0" rx="2.9118637998480152" ry="3.126628357050059" shape-rendering="auto" class="nodeMark nodetrait_RmFsc2U=" fill="#e50000"></ellipse><ellipse cx="241.7227722772278" cy="0" rx="2.9118637998480152" ry="3.126628357050059" shape-rendering="auto" class="nodeMark nodetrait_RmFsc2U=" fill="#e50000"></ellipse><ellipse cx="164.49504950495057" cy="153.03749999999997" rx="2.9118637998480152" ry="3.126628357050059" shape-rendering="auto" class="nodeMark nodetrait_RmFsc2U=" fill="#e50000"></ellipse><ellipse cx="87.26732673267337" cy="153.03749999999997" rx="2.9118637998480152" ry="3.126628357050059" shape-rendering="auto" class="nodeMark nodetrait_RmFsc2U=" fill="#e50000"></ellipse><ellipse cx="10.039603960396049" cy="153.03749999999997" rx="2.9118637998480152" ry="3.126628357050059" shape-rendering="auto" class="nodeMark nodetrait_RmFsc2U=" fill="#e50000"></ellipse><text x="1014" y="583" dominant-baseline="central" transform="matrix(1.06582 0 0 1.14443 0 0) matrix(1 0 0 1 -62.6164 -73.5741)">XBL</text><text x="1014" y="466.40000000000003" dominant-baseline="central" transform="matrix(1.06582 0 0 1.14443 0 0) matrix(1 0 0 1 -62.6164 -58.8592)">XDB</text><text x="396.1782178217822" y="0" dominant-baseline="central" transform="matrix(1.06582 0 0 1.14443 0 0) matrix(1 0 0 1 -24.4647 0)">AY.4</text><text x="936.7722772277228" y="578" pixelOffsetX="0" pixelOffsetY="-5" dominant-baseline="no-change" class="internalText" transform="matrix(1.06582 0 0 1.14443 0 0) matrix(1 0 0 1 -57.8474 -72.9431) translate(0 -0.630995)">XBB.1.5.57</text><text x="859.5445544554456" y="578" pixelOffsetX="0" pixelOffsetY="-5" dominant-baseline="no-change" class="internalText" transform="matrix(1.06582 0 0 1.14443 0 0) matrix(1 0 0 1 -53.0785 -72.9431) translate(0 -0.630995)">XBB.1.5</text><text x="936.7722772277228" y="461.40000000000003" pixelOffsetX="0" pixelOffsetY="-5" dominant-baseline="no-change" class="internalText" transform="matrix(1.06582 0 0 1.14443 0 0) matrix(1 0 0 1 -57.8474 -58.2282) translate(0 -0.630995)">XBB.1.16.19</text><text x="859.5445544554456" y="461.40000000000003" pixelOffsetX="0" pixelOffsetY="-5" dominant-baseline="no-change" class="internalText" transform="matrix(1.06582 0 0 1.14443 0 0) matrix(1 0 0 1 -53.0785 -58.2282) translate(0 -0.630995)">XBB.1.16</text><text x="787.3168316831684" y="524.7" pixelOffsetX="5" pixelOffsetY="0" dominant-baseline="central" class="internalText" transform="matrix(1.06582 0 0 1.14443 0 0) matrix(1 0 0 1 -48.6183 -66.2166) translate(0.308759 0)">XBB.1</text><text x="710.0891089108911" y="437.25" pixelOffsetX="5" pixelOffsetY="0" dominant-baseline="central" class="internalText" transform="matrix(1.06582 0 0 1.14443 0 0) matrix(1 0 0 1 -43.8493 -55.1805) translate(0.308759 0)">XBB</text><text x="627.861386138614" y="432.25" pixelOffsetX="0" pixelOffsetY="-5" dominant-baseline="no-change" class="internalText" transform="matrix(1.06582 0 0 1.14443 0 0) matrix(1 0 0 1 -38.7716 -54.5495) translate(0 -0.630995)">BJ.1</text><text x="550.6336633663367" y="432.25" pixelOffsetX="0" pixelOffsetY="-5" dominant-baseline="no-change" class="internalText" transform="matrix(1.06582 0 0 1.14443 0 0) matrix(1 0 0 1 -34.0027 -54.5495) translate(0 -0.630995)">BA.2.10.1</text><text x="473.4059405940594" y="432.25" pixelOffsetX="0" pixelOffsetY="-5" dominant-baseline="no-change" class="internalText" transform="matrix(1.06582 0 0 1.14443 0 0) matrix(1 0 0 1 -29.2337 -54.5495) translate(0 -0.630995)">BA.2.10</text><text x="782.3168316831684" y="111.59999999999998" pixelOffsetX="0" pixelOffsetY="-5" dominant-baseline="no-change" class="internalText" transform="matrix(1.06582 0 0 1.14443 0 0) matrix(1 0 0 1 -48.3095 -14.0838) translate(0 -0.630995)">BM.1.1.1</text><text x="705.0891089108911" y="111.59999999999998" pixelOffsetX="0" pixelOffsetY="-5" dominant-baseline="no-change" class="internalText" transform="matrix(1.06582 0 0 1.14443 0 0) matrix(1 0 0 1 -43.5406 -14.0838) translate(0 -0.630995)">BM.1.1</text><text x="627.861386138614" y="111.59999999999998" pixelOffsetX="0" pixelOffsetY="-5" dominant-baseline="no-change" class="internalText" transform="matrix(1.06582 0 0 1.14443 0 0) matrix(1 0 0 1 -38.7716 -14.0838) translate(0 -0.630995)">BM.1</text><text x="550.6336633663367" y="111.59999999999998" pixelOffsetX="0" pixelOffsetY="-5" dominant-baseline="no-change" class="internalText" transform="matrix(1.06582 0 0 1.14443 0 0) matrix(1 0 0 1 -34.0027 -14.0838) translate(0 -0.630995)">BA.2.75.3</text><text x="478.4059405940594" y="174.90000000000003" pixelOffsetX="5" pixelOffsetY="0" dominant-baseline="central" class="internalText" transform="matrix(1.06582 0 0 1.14443 0 0) matrix(1 0 0 1 -29.5425 -22.0722) translate(0.308759 0)">BA.2.75</text><text x="401.1782178217822" y="306.075" pixelOffsetX="5" pixelOffsetY="0" dominant-baseline="central" class="internalText" transform="matrix(1.06582 0 0 1.14443 0 0) matrix(1 0 0 1 -24.7735 -38.6264) translate(0.308759 0)">BA.2</text><text x="318.950495049505" y="301.075" pixelOffsetX="0" pixelOffsetY="-5" dominant-baseline="no-change" class="internalText" transform="matrix(1.06582 0 0 1.14443 0 0) matrix(1 0 0 1 -19.6958 -37.9954) translate(0 -0.630995)">B.1.1.529</text><text x="241.7227722772278" y="301.075" pixelOffsetX="0" pixelOffsetY="-5" dominant-baseline="no-change" class="internalText" transform="matrix(1.06582 0 0 1.14443 0 0) matrix(1 0 0 1 -14.9268 -37.9954) translate(0 -0.630995)">B.1.1</text><text x="318.950495049505" y="-5" pixelOffsetX="0" pixelOffsetY="-5" dominant-baseline="no-change" class="internalText" transform="matrix(1.06582 0 0 1.14443 0 0) matrix(1 0 0 1 -19.6958 0.630995) translate(0 -0.630995)">B.1.617.2</text><text x="241.7227722772278" y="-5" pixelOffsetX="0" pixelOffsetY="-5" dominant-baseline="no-change" class="internalText" transform="matrix(1.06582 0 0 1.14443 0 0) matrix(1 0 0 1 -14.9268 0.630995) translate(0 -0.630995)">B.1.617</text><text x="169.49504950495057" y="153.03749999999997" pixelOffsetX="5" pixelOffsetY="0" dominant-baseline="central" class="internalText" transform="matrix(1.06582 0 0 1.14443 0 0) matrix(1 0 0 1 -10.4666 -19.3132) translate(0.308759 0)">B.1</text><text x="87.26732673267337" y="148.03749999999997" pixelOffsetX="0" pixelOffsetY="-5" dominant-baseline="no-change" class="internalText" transform="matrix(1.06582 0 0 1.14443 0 0) matrix(1 0 0 1 -5.38892 -18.6822) translate(0 -0.630995)">B</text><text x="10.039603960396049" y="148.03749999999997" pixelOffsetX="0" pixelOffsetY="-5" dominant-baseline="no-change" class="internalText" transform="matrix(1.06582 0 0 1.14443 0 0) matrix(1 0 0 1 -0.619964 -18.6822) translate(0 -0.630995)">root</text></svg>